<svg version="1.1" id="Layer_1" xmlns="http://www.w3.org/2000/svg" xmlns:xlink="http://www.w3.org/1999/xlink" x="0px" y="0px"
	 width="100%" viewBox="0 0 2000 2000" enable-background="new 0 0 2000 2000" xml:space="preserve">
<path fill="#FEFEFE" opacity="1.000000" stroke="none" 
	d="
M1181.000000,2001.000000 
	C787.333313,2001.000000 394.166656,2001.000000 1.000000,2001.000000 
	C1.000000,1334.333374 1.000000,667.666687 1.000000,1.000000 
	C667.666687,1.000000 1334.333374,1.000000 2001.000000,1.000000 
	C2001.000000,667.666687 2001.000000,1334.333374 2001.000000,2001.000000 
	C1727.833374,2001.000000 1454.666626,2001.000000 1181.000000,2001.000000 
M81.838066,1465.500000 
	C81.838066,1616.937622 81.838066,1768.375366 81.838066,1919.912109 
	C694.832581,1919.912109 1307.352783,1919.912109 1919.837036,1919.912109 
	C1919.837036,1307.094482 1919.837036,694.569031 1919.837036,82.212753 
	C1306.989380,82.212753 694.466553,82.212753 81.838066,82.212753 
	C81.838066,543.224976 81.838066,1003.862488 81.838066,1465.500000 
z"/>
<path fill="#000000" opacity="1.000000" stroke="none" 
	d="
M81.838066,1465.000000 
	C81.838066,1003.862488 81.838066,543.224976 81.838066,82.212753 
	C694.466553,82.212753 1306.989380,82.212753 1919.837036,82.212753 
	C1919.837036,694.569031 1919.837036,1307.094482 1919.837036,1919.912109 
	C1307.352783,1919.912109 694.832581,1919.912109 81.838066,1919.912109 
	C81.838066,1768.375366 81.838066,1616.937622 81.838066,1465.000000 
M541.935669,559.501038 
	C541.935669,859.594116 541.935669,1159.687256 541.935669,1459.840576 
	C848.208374,1459.840576 1153.949951,1459.840576 1459.708130,1459.840576 
	C1459.708130,1153.759766 1459.708130,847.900208 1459.708130,542.245605 
	C1153.612671,542.245605 847.870850,542.245605 541.935669,542.245605 
	C541.935669,547.870056 541.935669,553.185730 541.935669,559.501038 
z"/>
<path fill="#FFFFFF" opacity="1.000000" stroke="none" 
	d="
M541.935669,559.001221 
	C541.935669,553.185730 541.935669,547.870056 541.935669,542.245605 
	C847.870850,542.245605 1153.612671,542.245605 1459.708130,542.245605 
	C1459.708130,847.900208 1459.708130,1153.759766 1459.708130,1459.840576 
	C1153.949951,1459.840576 848.208374,1459.840576 541.935669,1459.840576 
	C541.935669,1159.687256 541.935669,859.594116 541.935669,559.001221 
M838.206360,1151.500122 
	C838.206360,1129.415771 838.206360,1107.331299 838.206360,1085.339355 
	C816.043152,1085.339355 794.491394,1085.339355 772.503235,1085.339355 
	C772.503235,1125.912109 772.503235,1166.139404 772.503235,1206.416870 
	C729.472961,1206.416870 686.884155,1206.416870 643.750854,1206.416870 
	C643.750854,1165.804077 643.750854,1125.435425 643.750854,1085.237061 
	C621.606384,1085.237061 600.007812,1085.237061 578.360840,1085.237061 
	C578.360840,1193.523926 578.360840,1301.566406 578.360840,1409.589966 
	C600.312988,1409.589966 622.028931,1409.589966 644.148071,1409.589966 
	C644.148071,1360.889526 644.148071,1312.495117 644.148071,1264.137573 
	C687.147156,1264.137573 729.739563,1264.137573 772.800659,1264.137573 
	C772.800659,1312.752808 772.800659,1361.139771 772.800659,1409.631592 
	C794.835754,1409.631592 816.400330,1409.631592 837.911316,1409.631592 
	C838.039246,1409.053955 838.170105,1408.738892 838.170166,1408.423828 
	C838.188171,1323.115967 838.197144,1237.808105 838.206360,1151.500122 
M1363.298462,1404.816772 
	C1425.241089,1362.399902 1438.956421,1275.896606 1398.895264,1214.888916 
	C1356.006226,1149.575195 1268.654663,1138.389648 1212.573364,1190.967773 
	C1161.188965,1239.142212 1155.302002,1323.203735 1199.467041,1378.114014 
	C1240.632324,1429.294434 1309.489868,1440.706055 1363.298462,1404.816772 
M1081.346680,1323.500244 
	C1081.346680,1306.170410 1081.323730,1288.840576 1081.375854,1271.510986 
	C1081.382324,1269.365845 1081.286133,1267.010620 1082.086060,1265.109863 
	C1091.638916,1242.411011 1108.121704,1227.364380 1132.050659,1221.011475 
	C1138.089844,1219.408203 1144.405518,1218.846313 1150.934204,1217.748657 
	C1152.352905,1199.161743 1153.762817,1180.690674 1155.195190,1161.926025 
	C1123.017212,1162.576294 1099.733643,1177.467285 1081.345337,1202.067383 
	C1081.345337,1190.197876 1081.345337,1178.328491 1081.345337,1166.373779 
	C1059.345825,1166.373779 1037.791870,1166.373779 1016.396545,1166.373779 
	C1016.396545,1247.723511 1016.396545,1328.768677 1016.396545,1409.673218 
	C1038.188965,1409.673218 1059.633179,1409.673218 1081.346680,1409.673218 
	C1081.346680,1381.112915 1081.346680,1352.806641 1081.346680,1323.500244 
M894.211853,1373.499878 
	C894.211853,1388.257690 894.211853,1403.015381 894.211853,1417.667236 
	C919.148315,1417.667236 943.408630,1417.667236 967.617737,1417.667236 
	C967.617737,1333.679565 967.617737,1249.959473 967.617737,1166.343506 
	C943.048706,1166.343506 918.794739,1166.343506 894.211853,1166.343506 
	C894.211853,1235.245483 894.211853,1303.872681 894.211853,1373.499878 
M933.499634,1150.482910 
	C944.919067,1150.482910 956.338501,1150.482910 967.731384,1150.482910 
	C967.731384,1128.350098 967.731384,1106.907593 967.731384,1085.406128 
	C943.161499,1085.406128 918.794067,1085.406128 894.416931,1085.406128 
	C894.416931,1107.177002 894.416931,1128.608887 894.416931,1150.482910 
	C907.244873,1150.482910 919.872192,1150.482910 933.499634,1150.482910 
z"/>
<path fill="#010101" opacity="1.000000" stroke="none" 
	d="
M838.206360,1152.000244 
	C838.197144,1237.808105 838.188171,1323.115967 838.170166,1408.423828 
	C838.170105,1408.738892 838.039246,1409.053955 837.911316,1409.631592 
	C816.400330,1409.631592 794.835754,1409.631592 772.800659,1409.631592 
	C772.800659,1361.139771 772.800659,1312.752808 772.800659,1264.137573 
	C729.739563,1264.137573 687.147156,1264.137573 644.148071,1264.137573 
	C644.148071,1312.495117 644.148071,1360.889526 644.148071,1409.589966 
	C622.028931,1409.589966 600.312988,1409.589966 578.360840,1409.589966 
	C578.360840,1301.566406 578.360840,1193.523926 578.360840,1085.237061 
	C600.007812,1085.237061 621.606384,1085.237061 643.750854,1085.237061 
	C643.750854,1125.435425 643.750854,1165.804077 643.750854,1206.416870 
	C686.884155,1206.416870 729.472961,1206.416870 772.503235,1206.416870 
	C772.503235,1166.139404 772.503235,1125.912109 772.503235,1085.339355 
	C794.491394,1085.339355 816.043152,1085.339355 838.206360,1085.339355 
	C838.206360,1107.331299 838.206360,1129.415771 838.206360,1152.000244 
z"/>
<path fill="#020202" opacity="1.000000" stroke="none" 
	d="
M1362.982056,1404.988403 
	C1309.489868,1440.706055 1240.632324,1429.294434 1199.467041,1378.114014 
	C1155.302002,1323.203735 1161.188965,1239.142212 1212.573364,1190.967773 
	C1268.654663,1138.389648 1356.006226,1149.575195 1398.895264,1214.888916 
	C1438.956421,1275.896606 1425.241089,1362.399902 1362.982056,1404.988403 
M1347.528198,1343.991211 
	C1369.960327,1313.946289 1370.301758,1271.343140 1348.349731,1241.455933 
	C1324.322754,1208.743774 1282.043457,1206.817139 1255.212891,1237.211792 
	C1229.953735,1265.826172 1229.060059,1314.868042 1253.252319,1344.809448 
	C1279.262207,1377.000488 1321.351929,1376.880249 1347.528198,1343.991211 
z"/>
<path fill="#010101" opacity="1.000000" stroke="none" 
	d="
M1081.346680,1324.000244 
	C1081.346680,1352.806641 1081.346680,1381.112915 1081.346680,1409.673218 
	C1059.633179,1409.673218 1038.188965,1409.673218 1016.396545,1409.673218 
	C1016.396545,1328.768677 1016.396545,1247.723511 1016.396545,1166.373779 
	C1037.791870,1166.373779 1059.345825,1166.373779 1081.345337,1166.373779 
	C1081.345337,1178.328491 1081.345337,1190.197876 1081.345337,1202.067383 
	C1099.733643,1177.467285 1123.017212,1162.576294 1155.195190,1161.926025 
	C1153.762817,1180.690674 1152.352905,1199.161743 1150.934204,1217.748657 
	C1144.405518,1218.846313 1138.089844,1219.408203 1132.050659,1221.011475 
	C1108.121704,1227.364380 1091.638916,1242.411011 1082.086060,1265.109863 
	C1081.286133,1267.010620 1081.382324,1269.365845 1081.375854,1271.510986 
	C1081.323730,1288.840576 1081.346680,1306.170410 1081.346680,1324.000244 
z"/>
<path fill="#020202" opacity="1.000000" stroke="none" 
	d="
M894.211853,1372.999756 
	C894.211853,1303.872681 894.211853,1235.245483 894.211853,1166.343506 
	C918.794739,1166.343506 943.048706,1166.343506 967.617737,1166.343506 
	C967.617737,1249.959473 967.617737,1333.679565 967.617737,1417.667236 
	C943.408630,1417.667236 919.148315,1417.667236 894.211853,1417.667236 
	C894.211853,1403.015381 894.211853,1388.257690 894.211853,1372.999756 
z"/>
<path fill="#020202" opacity="1.000000" stroke="none" 
	d="
M932.999634,1150.482910 
	C919.872192,1150.482910 907.244873,1150.482910 894.416931,1150.482910 
	C894.416931,1128.608887 894.416931,1107.177002 894.416931,1085.406128 
	C918.794067,1085.406128 943.161499,1085.406128 967.731384,1085.406128 
	C967.731384,1106.907593 967.731384,1128.350098 967.731384,1150.482910 
	C956.338501,1150.482910 944.919067,1150.482910 932.999634,1150.482910 
z"/>
<path fill="#FEFEFE" opacity="1.000000" stroke="none" 
	d="
M1347.300781,1344.266357 
	C1321.351929,1376.880249 1279.262207,1377.000488 1253.252319,1344.809448 
	C1229.060059,1314.868042 1229.953735,1265.826172 1255.212891,1237.211792 
	C1282.043457,1206.817139 1324.322754,1208.743774 1348.349731,1241.455933 
	C1370.301758,1271.343140 1369.960327,1313.946289 1347.300781,1344.266357 
z"/>
</svg>